<?xml version="1.0" standalone="no"?>
<!DOCTYPE svg PUBLIC "-//W3C//DTD SVG 20010904//EN"
 "http://www.w3.org/TR/2001/REC-SVG-20010904/DTD/svg10.dtd">
<svg version="1.0" xmlns="http://www.w3.org/2000/svg"
 width="360.000000pt" height="360.000000pt" viewBox="0 0 360.000000 360.000000"
 preserveAspectRatio="xMidYMid meet">
<metadata>
Created by potrace 1.15, written by Peter Selinger 2001-2017
</metadata>
<g transform="translate(0.000000,360.000000) scale(0.100000,-0.100000)"
fill="#000000" stroke="none">
<path d="M2620 1913 c-25 -8 -51 -20 -58 -25 -7 -6 -15 -8 -19 -4 -3 3 0 6 7
6 7 0 11 3 7 6 -3 3 -21 -2 -39 -10 -19 -9 -54 -20 -78 -24 -44 -7 -45 -9 -53
-52 -12 -62 4 -105 36 -95 12 4 38 7 57 6 19 0 62 3 95 8 33 6 77 13 98 16 30
5 41 13 54 40 10 21 13 40 8 52 -5 10 -7 24 -6 31 1 6 -4 12 -10 12 -7 0 -9 3
-6 7 9 8 -22 43 -37 43 -6 -1 -31 -8 -56 -17z"/>
</g>
</svg>
