<?xml version="1.0" standalone="no"?>
<!DOCTYPE svg PUBLIC "-//W3C//DTD SVG 20010904//EN"
 "http://www.w3.org/TR/2001/REC-SVG-20010904/DTD/svg10.dtd">
<svg version="1.0" xmlns="http://www.w3.org/2000/svg"
 width="400.000000pt" height="400.000000pt" viewBox="0 0 400.000000 400.000000"
 preserveAspectRatio="xMidYMid meet">
<metadata>
Created by potrace 1.15, written by Peter Selinger 2001-2017
</metadata>
<g transform="translate(0.000000,400.000000) scale(0.100000,-0.100000)"
fill="#000000" stroke="none">
<path d="M1700 3981 c-430 -67 -809 -258 -1116 -565 -382 -382 -584 -872 -584
-1416 0 -544 202 -1034 584 -1416 382 -382 872 -584 1416 -584 544 0 1034 202
1416 584 382 382 584 872 584 1416 0 544 -202 1034 -584 1416 -313 313 -706
508 -1144 568 -152 21 -422 20 -572 -3z m550 -507 c200 -32 446 -135 623 -261
104 -74 266 -236 340 -340 374 -525 374 -1221 0 -1746 -74 -104 -236 -266
-340 -340 -396 -282 -904 -357 -1358 -200 -216 75 -405 194 -570 358 -171 172
-288 362 -364 590 -54 163 -74 288 -74 465 0 177 20 302 74 465 76 228 194
419 364 590 347 346 815 497 1305 419z"/>
<path d="M1496 2128 l-498 -623 501 -3 c276 -1 726 -1 1002 0 l501 3 -496 620
c-273 341 -500 621 -504 623 -4 1 -232 -278 -506 -620z"/>
</g>
</svg>
